<svg xmlns="http://www.w3.org/2000/svg" width="860" height="240" viewBox="0 0 860 240" role="img" aria-label="启动链路示意图">
  <rect width="860" height="240" fill="#f6f1e8"/>
  <rect x="36" y="82" width="150" height="76" rx="16" fill="#d6e4f2" stroke="#264653" stroke-width="3"/>
  <text x="111" y="114" text-anchor="middle" font-size="20" font-family="Georgia, serif" fill="#14213d">平台</text>
  <text x="111" y="140" text-anchor="middle" font-size="20" font-family="Georgia, serif" fill="#14213d">复位</text>
  <rect x="236" y="62" width="176" height="116" rx="16" fill="#fdecc8" stroke="#9c6644" stroke-width="3"/>
  <text x="324" y="98" text-anchor="middle" font-size="22" font-family="Georgia, serif" fill="#5a3d2b">M 模式固件</text>
  <text x="324" y="126" text-anchor="middle" font-size="20" font-family="Georgia, serif" fill="#5a3d2b">OpenSBI</text>
  <text x="324" y="152" text-anchor="middle" font-size="17" font-family="Georgia, serif" fill="#5a3d2b">handoff 与 SBI 层</text>
  <rect x="462" y="62" width="194" height="116" rx="16" fill="#dfead2" stroke="#386641" stroke-width="3"/>
  <text x="559" y="98" text-anchor="middle" font-size="22" font-family="Georgia, serif" fill="#1b4332">S 模式负载</text>
  <text x="559" y="126" text-anchor="middle" font-size="20" font-family="Georgia, serif" fill="#1b4332">Linux 或 bootloader</text>
  <text x="559" y="152" text-anchor="middle" font-size="17" font-family="Georgia, serif" fill="#1b4332">依赖 SBI 服务</text>
  <rect x="706" y="82" width="118" height="76" rx="16" fill="#f5dedd" stroke="#8d4f4f" stroke-width="3"/>
  <text x="765" y="114" text-anchor="middle" font-size="20" font-family="Georgia, serif" fill="#572d2d">U 模式</text>
  <text x="765" y="140" text-anchor="middle" font-size="20" font-family="Georgia, serif" fill="#572d2d">进程</text>
  <path d="M186 120 H226" stroke="#7f5539" stroke-width="4" fill="none"/>
  <polygon points="226,120 212,112 212,128" fill="#7f5539"/>
  <path d="M412 120 H452" stroke="#7f5539" stroke-width="4" fill="none"/>
  <polygon points="452,120 438,112 438,128" fill="#7f5539"/>
  <path d="M656 120 H696" stroke="#7f5539" stroke-width="4" fill="none"/>
  <polygon points="696,120 682,112 682,128" fill="#7f5539"/>
</svg>
