<svg
  viewBox="8 16 104 26"
  xmlns="http://www.w3.org/2000/svg"
  role="img"
  aria-label="0x1B05"
>
  <g fill="#88c0d0">
    <path transform="translate(10 39.931641)" d="M 8.421875 0.28125 C 6.035156 0.28125 4.285156 -0.613281 3.171875 -2.40625 C 2.066406 -4.195312 1.515625 -6.753906 1.515625 -10.078125 C 1.515625 -13.367188 2.054688 -15.890625 3.140625 -17.640625 C 4.222656 -19.390625 5.957031 -20.265625 8.34375 -20.265625 C 10.726562 -20.265625 12.476562 -19.367188 13.59375 -17.578125 C 14.71875 -15.785156 15.28125 -13.226562 15.28125 -9.90625 C 15.28125 -7.851562 15.0625 -6.066406 14.625 -4.546875 C 14.1875 -3.023438 13.460938 -1.835938 12.453125 -0.984375 C 11.453125 -0.140625 10.109375 0.28125 8.421875 0.28125 Z M 4.84375 -9.90625 C 4.84375 -8.820312 4.890625 -7.875 4.984375 -7.0625 L 10.5625 -16.359375 C 10 -17.003906 9.269531 -17.328125 8.375 -17.328125 C 7.082031 -17.328125 6.171875 -16.707031 5.640625 -15.46875 C 5.109375 -14.226562 4.84375 -12.375 4.84375 -9.90625 Z M 8.375 -2.609375 C 9.675781 -2.609375 10.597656 -3.207031 11.140625 -4.40625 C 11.679688 -5.613281 11.953125 -7.441406 11.953125 -9.890625 C 11.953125 -11.210938 11.878906 -12.335938 11.734375 -13.265625 L 5.984375 -3.78125 C 6.546875 -3 7.34375 -2.609375 8.375 -2.609375 Z M 8.375 -2.609375" />
    <path transform="translate(27 39.931641)" d="M 0.8125 0 L 6.328125 -7.734375 L 1.09375 -15.171875 L 5.1875 -15.171875 L 8.421875 -10.046875 L 11.765625 -15.171875 L 15.875 -15.171875 L 10.5625 -7.734375 L 15.953125 0 L 11.875 0 L 8.453125 -5.375 L 4.921875 0 Z M 0.8125 0" />
    <path transform="translate(44 39.931641)" d="M 3.390625 0 L 3.390625 -2.40625 L 7.359375 -2.765625 L 7.359375 -11.90625 C 7.359375 -12.664062 7.367188 -13.414062 7.390625 -14.15625 C 7.410156 -14.90625 7.4375 -15.597656 7.46875 -16.234375 C 7.195312 -16.066406 6.925781 -15.910156 6.65625 -15.765625 C 6.394531 -15.617188 6.117188 -15.46875 5.828125 -15.3125 L 3.75 -14.21875 L 2.21875 -16.96875 L 7.984375 -19.984375 L 10.8125 -19.984375 L 10.8125 -2.765625 L 14.734375 -2.40625 L 14.734375 0 Z M 3.390625 0" />
  </g>
  <g fill="#5e81ac">
    <path transform="translate(61 39.931641)" d="M 2.40625 0 L 2.40625 -19.984375 L 8.3125 -19.984375 C 10.457031 -19.984375 12.113281 -19.601562 13.28125 -18.84375 C 14.445312 -18.09375 15.03125 -16.84375 15.03125 -15.09375 C 15.03125 -13.84375 14.742188 -12.828125 14.171875 -12.046875 C 13.609375 -11.273438 12.832031 -10.796875 11.84375 -10.609375 L 11.84375 -10.46875 C 12.90625 -10.226562 13.78125 -9.757812 14.46875 -9.0625 C 15.164062 -8.363281 15.515625 -7.285156 15.515625 -5.828125 C 15.515625 -3.992188 14.941406 -2.5625 13.796875 -1.53125 C 12.660156 -0.507812 11.078125 0 9.046875 0 Z M 8.375 -11.90625 C 9.507812 -11.90625 10.316406 -12.117188 10.796875 -12.546875 C 11.285156 -12.972656 11.53125 -13.632812 11.53125 -14.53125 C 11.53125 -15.445312 11.273438 -16.097656 10.765625 -16.484375 C 10.253906 -16.878906 9.378906 -17.078125 8.140625 -17.078125 L 5.65625 -17.078125 L 5.65625 -11.90625 Z M 8.625 -2.90625 C 9.851562 -2.90625 10.707031 -3.179688 11.1875 -3.734375 C 11.675781 -4.285156 11.921875 -5.03125 11.921875 -5.96875 C 11.921875 -6.914062 11.671875 -7.644531 11.171875 -8.15625 C 10.679688 -8.675781 9.785156 -8.9375 8.484375 -8.9375 L 5.65625 -8.9375 L 5.65625 -2.90625 Z M 8.625 -2.90625" />
    <path transform="translate(78 39.931641)" d="M 8.421875 0.28125 C 6.035156 0.28125 4.285156 -0.613281 3.171875 -2.40625 C 2.066406 -4.195312 1.515625 -6.753906 1.515625 -10.078125 C 1.515625 -13.367188 2.054688 -15.890625 3.140625 -17.640625 C 4.222656 -19.390625 5.957031 -20.265625 8.34375 -20.265625 C 10.726562 -20.265625 12.476562 -19.367188 13.59375 -17.578125 C 14.71875 -15.785156 15.28125 -13.226562 15.28125 -9.90625 C 15.28125 -7.851562 15.0625 -6.066406 14.625 -4.546875 C 14.1875 -3.023438 13.460938 -1.835938 12.453125 -0.984375 C 11.453125 -0.140625 10.109375 0.28125 8.421875 0.28125 Z M 4.84375 -9.90625 C 4.84375 -8.820312 4.890625 -7.875 4.984375 -7.0625 L 10.5625 -16.359375 C 10 -17.003906 9.269531 -17.328125 8.375 -17.328125 C 7.082031 -17.328125 6.171875 -16.707031 5.640625 -15.46875 C 5.109375 -14.226562 4.84375 -12.375 4.84375 -9.90625 Z M 8.375 -2.609375 C 9.675781 -2.609375 10.597656 -3.207031 11.140625 -4.40625 C 11.679688 -5.613281 11.953125 -7.441406 11.953125 -9.890625 C 11.953125 -11.210938 11.878906 -12.335938 11.734375 -13.265625 L 5.984375 -3.78125 C 6.546875 -3 7.34375 -2.609375 8.375 -2.609375 Z M 8.375 -2.609375" />
    <path transform="translate(95 39.931641)" d="M 7.140625 0.28125 C 6.285156 0.28125 5.40625 0.1875 4.5 0 C 3.601562 -0.1875 2.832031 -0.457031 2.1875 -0.8125 L 2.1875 -3.96875 C 2.914062 -3.5625 3.707031 -3.253906 4.5625 -3.046875 C 5.425781 -2.847656 6.265625 -2.75 7.078125 -2.75 C 8.347656 -2.75 9.316406 -3.019531 9.984375 -3.5625 C 10.660156 -4.113281 11 -4.96875 11 -6.125 C 11 -7.394531 10.625 -8.316406 9.875 -8.890625 C 9.132812 -9.460938 8.222656 -9.75 7.140625 -9.75 C 6.597656 -9.75 6.046875 -9.703125 5.484375 -9.609375 C 4.921875 -9.523438 4.445312 -9.410156 4.0625 -9.265625 L 2.546875 -10.109375 L 3.296875 -19.984375 L 13.53125 -19.984375 L 13.53125 -17 L 6.390625 -17 L 5.984375 -12.296875 C 6.421875 -12.390625 6.859375 -12.453125 7.296875 -12.484375 C 7.734375 -12.523438 8.109375 -12.546875 8.421875 -12.546875 C 9.597656 -12.546875 10.648438 -12.3125 11.578125 -11.84375 C 12.515625 -11.375 13.257812 -10.679688 13.8125 -9.765625 C 14.363281 -8.859375 14.640625 -7.722656 14.640625 -6.359375 C 14.640625 -4.941406 14.320312 -3.738281 13.6875 -2.75 C 13.050781 -1.757812 12.171875 -1.003906 11.046875 -0.484375 C 9.921875 0.0234375 8.617188 0.28125 7.140625 0.28125 Z M 7.140625 0.28125" />
  </g>
</svg>
